<svg width="48" height="48" viewBox="0 0 48 48" fill="none" xmlns="http://www.w3.org/2000/svg">
<path d="M37.2675 25.733C37.0355 25.5006 36.76 25.3163 36.4567 25.1905C36.1535 25.0647 35.8283 25 35.5 25C35.1717 25 34.8466 25.0647 34.5433 25.1905C34.24 25.3163 33.9645 25.5006 33.7325 25.733L29.7475 29.718C27.9 29.168 24.4525 27.918 22.2675 25.733C20.0825 23.548 18.8325 20.1005 18.2825 18.253L22.2675 14.268C22.4999 14.036 22.6842 13.7605 22.81 13.4572C22.9358 13.1539 23.0005 12.8288 23.0005 12.5005C23.0005 12.1722 22.9358 11.8471 22.81 11.5438C22.6842 11.2405 22.4999 10.965 22.2675 10.733L12.2675 0.733003C12.0355 0.500638 11.76 0.316294 11.4567 0.190517C11.1535 0.0647402 10.8283 0 10.5 0C10.1717 0 9.84656 0.0647402 9.54328 0.190517C9.23999 0.316294 8.96448 0.500638 8.73251 0.733003L1.95251 7.513C1.00251 8.463 0.46751 9.768 0.48751 11.1005C0.54501 14.6605 1.48751 27.0255 11.2325 36.7705C20.9775 46.5155 33.3425 47.4555 36.905 47.5155H36.975C38.295 47.5155 39.5425 46.9955 40.4875 46.0505L47.2675 39.2705C47.4999 39.0385 47.6842 38.763 47.81 38.4597C47.9358 38.1564 48.0005 37.8313 48.0005 37.503C48.0005 37.1747 47.9358 36.8496 47.81 36.5463C47.6842 36.243 47.4999 35.9675 47.2675 35.7355L37.2675 25.733ZM36.95 42.513C33.83 42.4605 23.155 41.623 14.7675 33.233C6.35251 24.818 5.53751 14.1055 5.48751 11.048L10.5 6.0355L16.965 12.5005L13.7325 15.733C13.4387 16.0266 13.2226 16.3888 13.1039 16.7869C12.9852 17.185 12.9675 17.6064 13.0525 18.013C13.1125 18.3005 14.58 25.118 18.73 29.268C22.88 33.418 29.6975 34.8855 29.985 34.9455C30.3914 35.0329 30.8132 35.0167 31.2116 34.8983C31.6101 34.7799 31.9723 34.5631 32.265 34.268L35.5 31.0355L41.965 37.5005L36.95 42.513Z" fill="#313131"/>
</svg>
