<svg width="54" height="42" viewBox="0 0 54 42" fill="none" xmlns="http://www.w3.org/2000/svg">
<path d="M51.375 0.375H2.625C1.58789 0.375 0.75 1.21289 0.75 2.25V39.75C0.75 40.7871 1.58789 41.625 2.625 41.625H51.375C52.4121 41.625 53.25 40.7871 53.25 39.75V2.25C53.25 1.21289 52.4121 0.375 51.375 0.375ZM49.0312 6.86719V37.4062H4.96875V6.86719L3.35156 5.60742L5.6543 2.64844L8.16211 4.59961H45.8438L48.3516 2.64844L50.6543 5.60742L49.0312 6.86719ZM45.8438 4.59375L27 19.2422L8.15625 4.59375L5.64844 2.64258L3.3457 5.60156L4.96289 6.86133L24.9785 22.4238C25.5541 22.871 26.2623 23.1138 26.9912 23.1138C27.7201 23.1138 28.4283 22.871 29.0039 22.4238L49.0312 6.86719L50.6484 5.60742L48.3457 2.64844L45.8438 4.59375Z" fill="#313131"/>
</svg>
